<?xml version="1.0" encoding="UTF-8" standalone="no"?><svg xmlns="http://www.w3.org/2000/svg" xmlns:xlink="http://www.w3.org/1999/xlink" contentScriptType="application/ecmascript" contentStyleType="text/css" height="355.2px" preserveAspectRatio="none" style="width:537px;height:355px;background:#FFFFFF;" version="1.1" viewBox="0 0 537 355" width="537.6px" zoomAndPan="magnify"><defs><filter height="300%" id="f1ivbzmbz23v7a" width="300%" x="-1" y="-1"><feGaussianBlur result="blurOut" stdDeviation="1.2"/><feColorMatrix in="blurOut" result="blurOut2" type="matrix" values="0 0 0 0 0 0 0 0 0 0 0 0 0 0 0 0 0 0 .4 0"/><feOffset dx="2.4" dy="2.4" in="blurOut2" result="blurOut3"/><feBlend in="SourceGraphic" in2="blurOut3" mode="normal"/></filter></defs><g><!--MD5=[e05bacf3ff4416a0580578814d41bbf6]
class Piece--><rect codeLine="4" fill="#FEFECE" filter="url(#f1ivbzmbz23v7a)" height="252.9422" id="Piece" style="stroke:#A80036;stroke-width:0.8999999999999999;" width="55.2" x="239.1" y="4.2"/><ellipse cx="255.93" cy="13.8" fill="#A9DCDF" rx="6.6" ry="6.6" style="stroke:#A80036;stroke-width:0.6;"/><path d="M256.98,14.7 L255.0019,14.7 L254.7394,15.3 L254.7394,15.3 L255.0206,15.3 L255.33,15.675 L255.33,15.9 L255.33,16.125 L255.0206,16.5 L254.7394,16.5 L253.605,16.5 L253.2394,16.5 L252.93,16.125 L252.93,15.9 L252.93,15.675 L253.2394,15.3 L253.605,15.3 L254.9925,11.7 L254.4675,11.7 L253.8394,11.7 L253.53,11.325 L253.53,11.1 L253.53,10.875 L253.8394,10.5 L254.4675,10.5 L256.6706,10.5 L258.2831,15.3 L258.6206,15.3 L258.6206,15.3 L258.93,15.675 L258.93,15.9 L258.93,16.125 L258.6206,16.5 L258.2831,16.5 L257.1488,16.5 L256.8394,16.5 L256.53,16.125 L256.53,15.9 L256.53,15.675 L256.8394,15.3 L257.1488,15.3 L257.1488,15.3 L256.98,14.7 Z M256.6519,13.5 L255.93,11.3531 L255.3113,13.5 L256.6519,13.5 Z " fill="#000000"/><text fill="#000000" font-family="sans-serif" font-size="7.2" font-style="italic" lengthAdjust="spacing" textLength="18.6" x="266.07" y="16.7461">Piece</text><line style="stroke:#A80036;stroke-width:0.8999999999999999;" x1="239.7" x2="293.7" y1="23.4" y2="23.4"/><rect fill="none" height="3.6" style="stroke:#C82930;stroke-width:0.6;" width="3.6" x="243.9" y="28.2"/><text fill="#000000" font-family="sans-serif" font-size="6.6" lengthAdjust="spacing" textLength="30.6" x="251.1" y="32.6514">forms: List</text><rect fill="none" height="3.6" style="stroke:#C82930;stroke-width:0.6;" width="3.6" x="243.9" y="36.5016"/><text fill="#000000" font-family="sans-serif" font-size="6.6" lengthAdjust="spacing" textLength="31.8" x="251.1" y="40.9529">rotation: int</text><rect fill="none" height="3.6" style="stroke:#C82930;stroke-width:0.6;" width="3.6" x="243.9" y="44.8031"/><text fill="#000000" font-family="sans-serif" font-size="6.6" lengthAdjust="spacing" textLength="13.8" x="251.1" y="49.2545">x: int</text><rect fill="none" height="3.6" style="stroke:#C82930;stroke-width:0.6;" width="3.6" x="243.9" y="53.1047"/><text fill="#000000" font-family="sans-serif" font-size="6.6" lengthAdjust="spacing" textLength="13.8" x="251.1" y="57.5561">y: int</text><rect fill="none" height="3.6" style="stroke:#C82930;stroke-width:0.6;" width="3.6" x="243.9" y="61.4063"/><text fill="#000000" font-family="sans-serif" font-size="6.6" lengthAdjust="spacing" textLength="34.8" x="251.1" y="65.8576">color: String</text><rect fill="none" height="3.6" style="stroke:#C82930;stroke-width:0.6;" width="3.6" x="243.9" y="69.7078"/><text fill="#000000" font-family="sans-serif" font-size="6.6" lengthAdjust="spacing" textLength="27.6" x="251.1" y="74.1592">height: int</text><line style="stroke:#A80036;stroke-width:0.8999999999999999;" x1="239.7" x2="293.7" y1="78.0094" y2="78.0094"/><ellipse cx="245.7" cy="84.6094" fill="#84BE84" rx="1.8" ry="1.8" style="stroke:#038048;stroke-width:0.6;"/><text fill="#000000" font-family="sans-serif" font-size="6.6" lengthAdjust="spacing" textLength="18" x="251.1" y="87.2607">getX()</text><ellipse cx="245.7" cy="92.9109" fill="#84BE84" rx="1.8" ry="1.8" style="stroke:#038048;stroke-width:0.6;"/><text fill="#000000" font-family="sans-serif" font-size="6.6" lengthAdjust="spacing" textLength="18.6" x="251.1" y="95.5623">getY()</text><ellipse cx="245.7" cy="101.2125" fill="#84BE84" rx="1.8" ry="1.8" style="stroke:#038048;stroke-width:0.6;"/><text fill="#000000" font-family="sans-serif" font-size="6.6" lengthAdjust="spacing" textLength="28.8" x="251.1" y="103.8639">getColor()</text><ellipse cx="245.7" cy="109.5141" fill="#84BE84" rx="1.8" ry="1.8" style="stroke:#038048;stroke-width:0.6;"/><text fill="#000000" font-family="sans-serif" font-size="6.6" lengthAdjust="spacing" textLength="37.2" x="251.1" y="112.1654">getRotation()</text><ellipse cx="245.7" cy="117.8156" fill="#84BE84" rx="1.8" ry="1.8" style="stroke:#038048;stroke-width:0.6;"/><text fill="#000000" font-family="sans-serif" font-size="6.6" lengthAdjust="spacing" textLength="28.2" x="251.1" y="120.467">getForm()</text><ellipse cx="245.7" cy="126.1172" fill="#84BE84" rx="1.8" ry="1.8" style="stroke:#038048;stroke-width:0.6;"/><text fill="#000000" font-family="sans-serif" font-size="6.6" lengthAdjust="spacing" textLength="37.2" x="251.1" y="128.7686">setRotation()</text><ellipse cx="245.7" cy="134.4188" fill="#84BE84" rx="1.8" ry="1.8" style="stroke:#038048;stroke-width:0.6;"/><text fill="#000000" font-family="sans-serif" font-size="6.6" lengthAdjust="spacing" textLength="31.8" x="251.1" y="137.0701">setForms()</text><ellipse cx="245.7" cy="142.7203" fill="#84BE84" rx="1.8" ry="1.8" style="stroke:#038048;stroke-width:0.6;"/><text fill="#000000" font-family="sans-serif" font-size="6.6" lengthAdjust="spacing" textLength="28.8" x="251.1" y="145.3717">setColor()</text><ellipse cx="245.7" cy="151.0219" fill="#84BE84" rx="1.8" ry="1.8" style="stroke:#038048;stroke-width:0.6;"/><text fill="#000000" font-family="sans-serif" font-size="6.6" lengthAdjust="spacing" textLength="31.8" x="251.1" y="153.6732">setHeight()</text><ellipse cx="245.7" cy="159.3234" fill="#84BE84" rx="1.8" ry="1.8" style="stroke:#038048;stroke-width:0.6;"/><text fill="#000000" font-family="sans-serif" font-size="6.6" lengthAdjust="spacing" textLength="18" x="251.1" y="161.9748">setX()</text><ellipse cx="245.7" cy="167.625" fill="#84BE84" rx="1.8" ry="1.8" style="stroke:#038048;stroke-width:0.6;"/><text fill="#000000" font-family="sans-serif" font-size="6.6" lengthAdjust="spacing" textLength="18.6" x="251.1" y="170.2764">setY()</text><ellipse cx="245.7" cy="175.9266" fill="#84BE84" rx="1.8" ry="1.8" style="stroke:#038048;stroke-width:0.6;"/><text fill="#000000" font-family="sans-serif" font-size="6.6" lengthAdjust="spacing" textLength="21.6" x="251.1" y="178.5779">rotate()</text><ellipse cx="245.7" cy="184.2281" fill="#84BE84" rx="1.8" ry="1.8" style="stroke:#038048;stroke-width:0.6;"/><text fill="#000000" font-family="sans-serif" font-size="6.6" lengthAdjust="spacing" textLength="36" x="251.1" y="186.8795">checkIfFits()</text><ellipse cx="245.7" cy="192.5297" fill="#84BE84" rx="1.8" ry="1.8" style="stroke:#038048;stroke-width:0.6;"/><text fill="#000000" font-family="sans-serif" font-size="6.6" lengthAdjust="spacing" textLength="30.6" x="251.1" y="195.1811">doRotate()</text><ellipse cx="245.7" cy="200.8312" fill="#84BE84" rx="1.8" ry="1.8" style="stroke:#038048;stroke-width:0.6;"/><text fill="#000000" font-family="sans-serif" font-size="6.6" lengthAdjust="spacing" textLength="37.8" x="251.1" y="203.4826">moveDown()</text><ellipse cx="245.7" cy="209.1328" fill="#84BE84" rx="1.8" ry="1.8" style="stroke:#038048;stroke-width:0.6;"/><text fill="#000000" font-family="sans-serif" font-size="6.6" lengthAdjust="spacing" textLength="28.2" x="251.1" y="211.7842">moveUp()</text><ellipse cx="245.7" cy="217.4344" fill="#84BE84" rx="1.8" ry="1.8" style="stroke:#038048;stroke-width:0.6;"/><text fill="#000000" font-family="sans-serif" font-size="6.6" lengthAdjust="spacing" textLength="34.8" x="251.1" y="220.0857">moveRight()</text><ellipse cx="245.7" cy="225.7359" fill="#84BE84" rx="1.8" ry="1.8" style="stroke:#038048;stroke-width:0.6;"/><text fill="#000000" font-family="sans-serif" font-size="6.6" lengthAdjust="spacing" textLength="31.8" x="251.1" y="228.3873">moveLeft()</text><ellipse cx="245.7" cy="234.0375" fill="#84BE84" rx="1.8" ry="1.8" style="stroke:#038048;stroke-width:0.6;"/><text fill="#000000" font-family="sans-serif" font-size="6.6" lengthAdjust="spacing" textLength="36.6" x="251.1" y="236.6889">checkRight()</text><ellipse cx="245.7" cy="242.3391" fill="#84BE84" rx="1.8" ry="1.8" style="stroke:#038048;stroke-width:0.6;"/><text fill="#000000" font-family="sans-serif" font-size="6.6" lengthAdjust="spacing" textLength="33.6" x="251.1" y="244.9904">checkLeft()</text><ellipse cx="245.7" cy="250.6406" fill="#84BE84" rx="1.8" ry="1.8" style="stroke:#038048;stroke-width:0.6;"/><text fill="#000000" font-family="sans-serif" font-size="6.6" lengthAdjust="spacing" textLength="39.6" x="251.1" y="253.292">checkUnder()</text><!--MD5=[0cb91c7694e0539b3ea3fee1db5a0112]
class IPiece--><rect codeLine="42" fill="#FEFECE" filter="url(#f1ivbzmbz23v7a)" height="53.7047" id="IPiece" style="stroke:#A80036;stroke-width:0.8999999999999999;" width="57" x="4.2" y="293.4"/><ellipse cx="21.03" cy="303" fill="#ADD1B2" rx="6.6" ry="6.6" style="stroke:#A80036;stroke-width:0.6;"/><path d="M22.23,300.9 Q22.3519,300.6 22.4925,300.45 Q22.6331,300.3 22.7925,300.3 Q23.0737,300.3 23.2519,300.4688 Q23.43,300.6375 23.43,301.0313 L23.43,301.9688 Q23.43,302.3625 23.2612,302.5313 Q23.0925,302.7 22.83,302.7 Q22.5956,302.7 22.4456,302.5969 Q22.2956,302.4938 22.23,302.2219 Q22.2019,302.0344 22.0988,301.9313 Q21.9113,301.7344 21.5737,301.6219 Q21.2363,301.5 20.8987,301.5 Q20.4769,301.5 20.1206,301.6688 Q19.7737,301.8375 19.5019,302.2125 Q19.23,302.5875 19.23,303.1031 L19.23,303.6563 Q19.23,304.275 19.7363,304.6875 Q20.2425,305.1 21.1425,305.1 Q21.6769,305.1 22.0519,304.9781 Q22.2675,304.9125 22.5112,304.6969 Q22.6706,304.575 22.755,304.5375 Q22.8394,304.5 22.9425,304.5 Q23.1394,304.5 23.28,304.6594 Q23.43,304.8094 23.43,305.025 Q23.43,305.2313 23.2238,305.475 Q22.9238,305.8313 22.4456,306.0281 Q21.8175,306.3 21.0488,306.3 Q20.1487,306.3 19.4269,305.9437 Q18.8456,305.6625 18.4331,305.0531 Q18.03,304.4437 18.03,303.7219 L18.03,303.0656 Q18.03,302.3156 18.3862,301.6594 Q18.7519,301.0031 19.38,300.6563 Q20.0175,300.3 20.73,300.3 Q21.1613,300.3 21.5363,300.45 Q21.9113,300.6 22.23,300.9 Z " fill="#000000"/><text fill="#000000" font-family="sans-serif" font-size="7.2" lengthAdjust="spacing" textLength="20.4" x="31.17" y="305.9461">IPiece</text><line style="stroke:#A80036;stroke-width:0.8999999999999999;" x1="4.8" x2="60.6" y1="312.6" y2="312.6"/><line style="stroke:#A80036;stroke-width:0.8999999999999999;" x1="4.8" x2="60.6" y1="317.4" y2="317.4"/><ellipse cx="10.8" cy="324" fill="#84BE84" rx="1.8" ry="1.8" style="stroke:#038048;stroke-width:0.6;"/><text fill="#000000" font-family="sans-serif" font-size="6.6" lengthAdjust="spacing" textLength="41.4" x="16.2" y="326.6514">createForms()</text><ellipse cx="10.8" cy="332.3016" fill="#84BE84" rx="1.8" ry="1.8" style="stroke:#038048;stroke-width:0.6;"/><text fill="#000000" font-family="sans-serif" font-size="6.6" lengthAdjust="spacing" textLength="36" x="16.2" y="334.9529">checkIfFits()</text><ellipse cx="10.8" cy="340.6031" fill="#84BE84" rx="1.8" ry="1.8" style="stroke:#038048;stroke-width:0.6;"/><text fill="#000000" font-family="sans-serif" font-size="6.6" lengthAdjust="spacing" textLength="40.2" x="16.2" y="343.2545">checkRight2()</text><!--MD5=[d3ee1f2417d6d05e9378ada379cff8c5]
class JPiece--><rect codeLine="47" fill="#FEFECE" filter="url(#f1ivbzmbz23v7a)" height="37.1016" id="JPiece" style="stroke:#A80036;stroke-width:0.8999999999999999;" width="57" x="82.2" y="301.8"/><ellipse cx="98.22" cy="311.4" fill="#ADD1B2" rx="6.6" ry="6.6" style="stroke:#A80036;stroke-width:0.6;"/><path d="M99.42,309.3 Q99.5419,309 99.6825,308.85 Q99.8231,308.7 99.9825,308.7 Q100.2637,308.7 100.4419,308.8688 Q100.62,309.0375 100.62,309.4313 L100.62,310.3688 Q100.62,310.7625 100.4512,310.9313 Q100.2825,311.1 100.02,311.1 Q99.7856,311.1 99.6356,310.9969 Q99.4856,310.8938 99.42,310.6219 Q99.3919,310.4344 99.2888,310.3313 Q99.1013,310.1344 98.7637,310.0219 Q98.4263,309.9 98.0887,309.9 Q97.6669,309.9 97.3106,310.0687 Q96.9637,310.2375 96.6919,310.6125 Q96.42,310.9875 96.42,311.5031 L96.42,312.0563 Q96.42,312.675 96.9263,313.0875 Q97.4325,313.5 98.3325,313.5 Q98.8669,313.5 99.2419,313.3781 Q99.4575,313.3125 99.7012,313.0969 Q99.8606,312.975 99.945,312.9375 Q100.0294,312.9 100.1325,312.9 Q100.3294,312.9 100.47,313.0594 Q100.62,313.2094 100.62,313.425 Q100.62,313.6312 100.4138,313.875 Q100.1138,314.2313 99.6356,314.4281 Q99.0075,314.7 98.2388,314.7 Q97.3387,314.7 96.6169,314.3438 Q96.0356,314.0625 95.6231,313.4531 Q95.22,312.8438 95.22,312.1219 L95.22,311.4656 Q95.22,310.7156 95.5762,310.0594 Q95.9419,309.4031 96.57,309.0563 Q97.2075,308.7 97.92,308.7 Q98.3513,308.7 98.7263,308.85 Q99.1013,309 99.42,309.3 Z " fill="#000000"/><text fill="#000000" font-family="sans-serif" font-size="7.2" lengthAdjust="spacing" textLength="22.2" x="108.18" y="314.3461">JPiece</text><line style="stroke:#A80036;stroke-width:0.8999999999999999;" x1="82.8" x2="138.6" y1="321" y2="321"/><line style="stroke:#A80036;stroke-width:0.8999999999999999;" x1="82.8" x2="138.6" y1="325.8" y2="325.8"/><ellipse cx="88.8" cy="332.4" fill="#84BE84" rx="1.8" ry="1.8" style="stroke:#038048;stroke-width:0.6;"/><text fill="#000000" font-family="sans-serif" font-size="6.6" lengthAdjust="spacing" textLength="41.4" x="94.2" y="335.0514">createForms()</text><!--MD5=[c18981c2f25a396ef3ddacf6fb0e2b02]
class LPiece--><rect codeLine="50" fill="#FEFECE" filter="url(#f1ivbzmbz23v7a)" height="37.1016" id="LPiece" style="stroke:#A80036;stroke-width:0.8999999999999999;" width="57" x="160.2" y="301.8"/><ellipse cx="175.95" cy="311.4" fill="#ADD1B2" rx="6.6" ry="6.6" style="stroke:#A80036;stroke-width:0.6;"/><path d="M177.15,309.3 Q177.2719,309 177.4125,308.85 Q177.5531,308.7 177.7125,308.7 Q177.9938,308.7 178.1719,308.8688 Q178.35,309.0375 178.35,309.4313 L178.35,310.3688 Q178.35,310.7625 178.1813,310.9313 Q178.0125,311.1 177.75,311.1 Q177.5156,311.1 177.3656,310.9969 Q177.2156,310.8938 177.15,310.6219 Q177.1219,310.4344 177.0187,310.3313 Q176.8312,310.1344 176.4938,310.0219 Q176.1563,309.9 175.8188,309.9 Q175.3969,309.9 175.0406,310.0687 Q174.6938,310.2375 174.4219,310.6125 Q174.15,310.9875 174.15,311.5031 L174.15,312.0563 Q174.15,312.675 174.6563,313.0875 Q175.1625,313.5 176.0625,313.5 Q176.5969,313.5 176.9719,313.3781 Q177.1875,313.3125 177.4313,313.0969 Q177.5906,312.975 177.675,312.9375 Q177.7594,312.9 177.8625,312.9 Q178.0594,312.9 178.2,313.0594 Q178.35,313.2094 178.35,313.425 Q178.35,313.6312 178.1437,313.875 Q177.8438,314.2313 177.3656,314.4281 Q176.7375,314.7 175.9688,314.7 Q175.0688,314.7 174.3469,314.3438 Q173.7656,314.0625 173.3531,313.4531 Q172.95,312.8438 172.95,312.1219 L172.95,311.4656 Q172.95,310.7156 173.3063,310.0594 Q173.6719,309.4031 174.3,309.0563 Q174.9375,308.7 175.65,308.7 Q176.0812,308.7 176.4562,308.85 Q176.8312,309 177.15,309.3 Z " fill="#000000"/><text fill="#000000" font-family="sans-serif" font-size="7.2" lengthAdjust="spacing" textLength="22.8" x="185.85" y="314.3461">LPiece</text><line style="stroke:#A80036;stroke-width:0.8999999999999999;" x1="160.8" x2="216.6" y1="321" y2="321"/><line style="stroke:#A80036;stroke-width:0.8999999999999999;" x1="160.8" x2="216.6" y1="325.8" y2="325.8"/><ellipse cx="166.8" cy="332.4" fill="#84BE84" rx="1.8" ry="1.8" style="stroke:#038048;stroke-width:0.6;"/><text fill="#000000" font-family="sans-serif" font-size="6.6" lengthAdjust="spacing" textLength="41.4" x="172.2" y="335.0514">createForms()</text><!--MD5=[d0157b8163a719a56f3abd0ffc400e24]
class OPiece--><rect codeLine="53" fill="#FEFECE" filter="url(#f1ivbzmbz23v7a)" height="37.1016" id="OPiece" style="stroke:#A80036;stroke-width:0.8999999999999999;" width="57" x="238.2" y="301.8"/><ellipse cx="253.41" cy="311.4" fill="#ADD1B2" rx="6.6" ry="6.6" style="stroke:#A80036;stroke-width:0.6;"/><path d="M254.61,309.3 Q254.7319,309 254.8725,308.85 Q255.0131,308.7 255.1725,308.7 Q255.4538,308.7 255.6319,308.8688 Q255.81,309.0375 255.81,309.4313 L255.81,310.3688 Q255.81,310.7625 255.6413,310.9313 Q255.4725,311.1 255.21,311.1 Q254.9756,311.1 254.8256,310.9969 Q254.6756,310.8938 254.61,310.6219 Q254.5819,310.4344 254.4788,310.3313 Q254.2913,310.1344 253.9538,310.0219 Q253.6163,309.9 253.2788,309.9 Q252.8569,309.9 252.5006,310.0687 Q252.1538,310.2375 251.8819,310.6125 Q251.61,310.9875 251.61,311.5031 L251.61,312.0563 Q251.61,312.675 252.1163,313.0875 Q252.6225,313.5 253.5225,313.5 Q254.0569,313.5 254.4319,313.3781 Q254.6475,313.3125 254.8913,313.0969 Q255.0506,312.975 255.135,312.9375 Q255.2194,312.9 255.3225,312.9 Q255.5194,312.9 255.66,313.0594 Q255.81,313.2094 255.81,313.425 Q255.81,313.6312 255.6038,313.875 Q255.3038,314.2313 254.8256,314.4281 Q254.1975,314.7 253.4288,314.7 Q252.5288,314.7 251.8069,314.3438 Q251.2256,314.0625 250.8131,313.4531 Q250.41,312.8438 250.41,312.1219 L250.41,311.4656 Q250.41,310.7156 250.7663,310.0594 Q251.1319,309.4031 251.76,309.0563 Q252.3975,308.7 253.11,308.7 Q253.5413,308.7 253.9163,308.85 Q254.2913,309 254.61,309.3 Z " fill="#000000"/><text fill="#000000" font-family="sans-serif" font-size="7.2" lengthAdjust="spacing" textLength="24" x="263.19" y="314.3461">OPiece</text><line style="stroke:#A80036;stroke-width:0.8999999999999999;" x1="238.8" x2="294.6" y1="321" y2="321"/><line style="stroke:#A80036;stroke-width:0.8999999999999999;" x1="238.8" x2="294.6" y1="325.8" y2="325.8"/><ellipse cx="244.8" cy="332.4" fill="#84BE84" rx="1.8" ry="1.8" style="stroke:#038048;stroke-width:0.6;"/><text fill="#000000" font-family="sans-serif" font-size="6.6" lengthAdjust="spacing" textLength="41.4" x="250.2" y="335.0514">createForms()</text><!--MD5=[6ea2755499af9e58352c5c605d639172]
class SPiece--><rect codeLine="56" fill="#FEFECE" filter="url(#f1ivbzmbz23v7a)" height="37.1016" id="SPiece" style="stroke:#A80036;stroke-width:0.8999999999999999;" width="57" x="316.2" y="301.8"/><ellipse cx="331.68" cy="311.4" fill="#ADD1B2" rx="6.6" ry="6.6" style="stroke:#A80036;stroke-width:0.6;"/><path d="M332.88,309.3 Q333.0019,309 333.1425,308.85 Q333.2831,308.7 333.4425,308.7 Q333.7237,308.7 333.9019,308.8688 Q334.08,309.0375 334.08,309.4313 L334.08,310.3688 Q334.08,310.7625 333.9112,310.9313 Q333.7425,311.1 333.48,311.1 Q333.2456,311.1 333.0956,310.9969 Q332.9456,310.8938 332.88,310.6219 Q332.8519,310.4344 332.7488,310.3313 Q332.5613,310.1344 332.2237,310.0219 Q331.8862,309.9 331.5488,309.9 Q331.1269,309.9 330.7706,310.0687 Q330.4238,310.2375 330.1519,310.6125 Q329.88,310.9875 329.88,311.5031 L329.88,312.0563 Q329.88,312.675 330.3862,313.0875 Q330.8925,313.5 331.7925,313.5 Q332.3269,313.5 332.7019,313.3781 Q332.9175,313.3125 333.1612,313.0969 Q333.3206,312.975 333.405,312.9375 Q333.4894,312.9 333.5925,312.9 Q333.7894,312.9 333.93,313.0594 Q334.08,313.2094 334.08,313.425 Q334.08,313.6312 333.8738,313.875 Q333.5737,314.2313 333.0956,314.4281 Q332.4675,314.7 331.6987,314.7 Q330.7988,314.7 330.0769,314.3438 Q329.4956,314.0625 329.0831,313.4531 Q328.68,312.8438 328.68,312.1219 L328.68,311.4656 Q328.68,310.7156 329.0362,310.0594 Q329.4019,309.4031 330.03,309.0563 Q330.6675,308.7 331.38,308.7 Q331.8113,308.7 332.1863,308.85 Q332.5613,309 332.88,309.3 Z " fill="#000000"/><text fill="#000000" font-family="sans-serif" font-size="7.2" lengthAdjust="spacing" textLength="23.4" x="341.52" y="314.3461">SPiece</text><line style="stroke:#A80036;stroke-width:0.8999999999999999;" x1="316.8" x2="372.6" y1="321" y2="321"/><line style="stroke:#A80036;stroke-width:0.8999999999999999;" x1="316.8" x2="372.6" y1="325.8" y2="325.8"/><ellipse cx="322.8" cy="332.4" fill="#84BE84" rx="1.8" ry="1.8" style="stroke:#038048;stroke-width:0.6;"/><text fill="#000000" font-family="sans-serif" font-size="6.6" lengthAdjust="spacing" textLength="41.4" x="328.2" y="335.0514">createForms()</text><!--MD5=[4fd6cb26efe2bf2924c7951780d815b6]
class TPiece--><rect codeLine="59" fill="#FEFECE" filter="url(#f1ivbzmbz23v7a)" height="37.1016" id="TPiece" style="stroke:#A80036;stroke-width:0.8999999999999999;" width="57" x="394.2" y="301.8"/><ellipse cx="409.95" cy="311.4" fill="#ADD1B2" rx="6.6" ry="6.6" style="stroke:#A80036;stroke-width:0.6;"/><path d="M411.15,309.3 Q411.2719,309 411.4125,308.85 Q411.5531,308.7 411.7125,308.7 Q411.9938,308.7 412.1719,308.8688 Q412.35,309.0375 412.35,309.4313 L412.35,310.3688 Q412.35,310.7625 412.1813,310.9313 Q412.0125,311.1 411.75,311.1 Q411.5156,311.1 411.3656,310.9969 Q411.2156,310.8938 411.15,310.6219 Q411.1219,310.4344 411.0188,310.3313 Q410.8313,310.1344 410.4938,310.0219 Q410.1563,309.9 409.8187,309.9 Q409.3969,309.9 409.0406,310.0687 Q408.6937,310.2375 408.4219,310.6125 Q408.15,310.9875 408.15,311.5031 L408.15,312.0563 Q408.15,312.675 408.6563,313.0875 Q409.1625,313.5 410.0625,313.5 Q410.5969,313.5 410.9719,313.3781 Q411.1875,313.3125 411.4313,313.0969 Q411.5906,312.975 411.675,312.9375 Q411.7594,312.9 411.8625,312.9 Q412.0594,312.9 412.2,313.0594 Q412.35,313.2094 412.35,313.425 Q412.35,313.6312 412.1438,313.875 Q411.8438,314.2313 411.3656,314.4281 Q410.7375,314.7 409.9688,314.7 Q409.0687,314.7 408.3469,314.3438 Q407.7656,314.0625 407.3531,313.4531 Q406.95,312.8438 406.95,312.1219 L406.95,311.4656 Q406.95,310.7156 407.3063,310.0594 Q407.6719,309.4031 408.3,309.0563 Q408.9375,308.7 409.65,308.7 Q410.0813,308.7 410.4563,308.85 Q410.8313,309 411.15,309.3 Z " fill="#000000"/><text fill="#000000" font-family="sans-serif" font-size="7.2" lengthAdjust="spacing" textLength="22.8" x="419.85" y="314.3461">TPiece</text><line style="stroke:#A80036;stroke-width:0.8999999999999999;" x1="394.8" x2="450.6" y1="321" y2="321"/><line style="stroke:#A80036;stroke-width:0.8999999999999999;" x1="394.8" x2="450.6" y1="325.8" y2="325.8"/><ellipse cx="400.8" cy="332.4" fill="#84BE84" rx="1.8" ry="1.8" style="stroke:#038048;stroke-width:0.6;"/><text fill="#000000" font-family="sans-serif" font-size="6.6" lengthAdjust="spacing" textLength="41.4" x="406.2" y="335.0514">createForms()</text><!--MD5=[ea43de3a10c8ac2a6d2bed1bc8feecb9]
class ZPiece--><rect codeLine="62" fill="#FEFECE" filter="url(#f1ivbzmbz23v7a)" height="37.1016" id="ZPiece" style="stroke:#A80036;stroke-width:0.8999999999999999;" width="57" x="472.2" y="301.8"/><ellipse cx="487.95" cy="311.4" fill="#ADD1B2" rx="6.6" ry="6.6" style="stroke:#A80036;stroke-width:0.6;"/><path d="M489.15,309.3 Q489.2719,309 489.4125,308.85 Q489.5531,308.7 489.7125,308.7 Q489.9938,308.7 490.1719,308.8688 Q490.35,309.0375 490.35,309.4313 L490.35,310.3688 Q490.35,310.7625 490.1813,310.9313 Q490.0125,311.1 489.75,311.1 Q489.5156,311.1 489.3656,310.9969 Q489.2156,310.8938 489.15,310.6219 Q489.1219,310.4344 489.0187,310.3313 Q488.8312,310.1344 488.4938,310.0219 Q488.1563,309.9 487.8187,309.9 Q487.3969,309.9 487.0406,310.0687 Q486.6937,310.2375 486.4219,310.6125 Q486.15,310.9875 486.15,311.5031 L486.15,312.0563 Q486.15,312.675 486.6563,313.0875 Q487.1625,313.5 488.0625,313.5 Q488.5969,313.5 488.9719,313.3781 Q489.1875,313.3125 489.4313,313.0969 Q489.5906,312.975 489.675,312.9375 Q489.7594,312.9 489.8625,312.9 Q490.0594,312.9 490.2,313.0594 Q490.35,313.2094 490.35,313.425 Q490.35,313.6312 490.1437,313.875 Q489.8438,314.2313 489.3656,314.4281 Q488.7375,314.7 487.9688,314.7 Q487.0687,314.7 486.3469,314.3438 Q485.7656,314.0625 485.3531,313.4531 Q484.95,312.8438 484.95,312.1219 L484.95,311.4656 Q484.95,310.7156 485.3063,310.0594 Q485.6719,309.4031 486.3,309.0563 Q486.9375,308.7 487.65,308.7 Q488.0812,308.7 488.4562,308.85 Q488.8312,309 489.15,309.3 Z " fill="#000000"/><text fill="#000000" font-family="sans-serif" font-size="7.2" lengthAdjust="spacing" textLength="22.8" x="497.85" y="314.3461">ZPiece</text><line style="stroke:#A80036;stroke-width:0.8999999999999999;" x1="472.8" x2="528.6" y1="321" y2="321"/><line style="stroke:#A80036;stroke-width:0.8999999999999999;" x1="472.8" x2="528.6" y1="325.8" y2="325.8"/><ellipse cx="478.8" cy="332.4" fill="#84BE84" rx="1.8" ry="1.8" style="stroke:#038048;stroke-width:0.6;"/><text fill="#000000" font-family="sans-serif" font-size="6.6" lengthAdjust="spacing" textLength="41.4" x="484.2" y="335.0514">createForms()</text><!--MD5=[8580658a3b25cc7c16abc9b0c26ec44f]
reverse link Piece to IPiece--><path codeLine="34" d="M229.482,161.364 C182.76,198.984 103.62,262.704 61.338,296.742 " fill="none" id="Piece-backto-IPiece" style="stroke:#A80036;stroke-width:0.6;"/><polygon fill="none" points="226.956,158.004,238.938,153.75,232.224,164.55,226.956,158.004" style="stroke:#A80036;stroke-width:0.6;"/><!--MD5=[95731b89b3f906997d39195f882e984f]
reverse link Piece to JPiece--><path codeLine="35" d="M231.294,174.162 C198.012,214.356 149.808,272.574 125.664,301.728 " fill="none" id="Piece-backto-JPiece" style="stroke:#A80036;stroke-width:0.6;"/><polygon fill="none" points="228.102,171.432,238.992,164.868,234.57,176.784,228.102,171.432" style="stroke:#A80036;stroke-width:0.6;"/><!--MD5=[c95132548b020740836eafa5dc1c3a8f]
reverse link Piece to LPiece--><path codeLine="36" d="M234.468,209.256 C220.374,243.3 205.062,280.284 196.206,301.674 " fill="none" id="Piece-backto-LPiece" style="stroke:#A80036;stroke-width:0.6;"/><polygon fill="none" points="230.622,207.57,239.088,198.09,238.38,210.78,230.622,207.57" style="stroke:#A80036;stroke-width:0.6;"/><!--MD5=[d5a54036daef1c4b4528a4948bb69af2]
reverse link Piece to OPiece--><path codeLine="37" d="M266.7,269.736 C266.7,282.03 266.7,293.028 266.7,301.566 " fill="none" id="Piece-backto-OPiece" style="stroke:#A80036;stroke-width:0.6;"/><polygon fill="none" points="262.5,269.586,266.7,257.586,270.9,269.586,262.5,269.586" style="stroke:#A80036;stroke-width:0.6;"/><!--MD5=[cae1cc336b004a6717752b155a5bb845]
reverse link Piece to SPiece--><path codeLine="38" d="M298.932,209.256 C313.026,243.3 328.338,280.284 337.194,301.674 " fill="none" id="Piece-backto-SPiece" style="stroke:#A80036;stroke-width:0.6;"/><polygon fill="none" points="295.02,210.78,294.312,198.09,302.778,207.57,295.02,210.78" style="stroke:#A80036;stroke-width:0.6;"/><!--MD5=[adc68ca5cd94f5309dc60b9701d66b8d]
reverse link Piece to TPiece--><path codeLine="39" d="M302.106,174.162 C335.388,214.356 383.592,272.574 407.736,301.728 " fill="none" id="Piece-backto-TPiece" style="stroke:#A80036;stroke-width:0.6;"/><polygon fill="none" points="298.83,176.784,294.408,164.868,305.298,171.432,298.83,176.784" style="stroke:#A80036;stroke-width:0.6;"/><!--MD5=[04e88f9c5cbae6bb34d9924c96166def]
reverse link Piece to ZPiece--><path codeLine="40" d="M303.924,161.37 C353.022,200.904 437.898,269.238 478.2,301.686 " fill="none" id="Piece-backto-ZPiece" style="stroke:#A80036;stroke-width:0.6;"/><polygon fill="none" points="301.176,164.55,294.462,153.75,306.444,158.004,301.176,164.55" style="stroke:#A80036;stroke-width:0.6;"/><!--MD5=[fc7356169c5a19411769f9fd6efa5290]
@startuml
'https://plantuml.com/class-diagram

abstract class Piece
Abstract Piece {
    -  forms: List
    -  rotation: int
    -  x: int
    -  y: int
    -  color: String
    -  height: int
    + getX()
    + getY()
    + getColor()
    + getRotation()
    + getForm()
    + setRotation()
    + setForms()
    + setColor()
    + setHeight()
    + setX()
    + setY()
    + rotate()
    + checkIfFits()
    + doRotate()
    + moveDown()
    + moveUp()
    + moveRight()
    + moveLeft()
    + checkRight()
    + checkLeft()
    + checkUnder()
}

Piece<|- - IPiece
Piece<|- - JPiece
Piece<|- - LPiece
Piece<|- - OPiece
Piece<|- - SPiece
Piece<|- - TPiece
Piece<|- - ZPiece

class IPiece {
    + createForms()
    + checkIfFits()
    + checkRight2()
}
class JPiece {
    + createForms()
}
class LPiece {
    + createForms()
}
class OPiece {
    + createForms()
}
class SPiece {
    + createForms()
}
class TPiece {
    + createForms()
}
class ZPiece {
    + createForms()
}

@enduml

@startuml

abstract class Piece
Abstract Piece {
    -  forms: List
    -  rotation: int
    -  x: int
    -  y: int
    -  color: String
    -  height: int
    + getX()
    + getY()
    + getColor()
    + getRotation()
    + getForm()
    + setRotation()
    + setForms()
    + setColor()
    + setHeight()
    + setX()
    + setY()
    + rotate()
    + checkIfFits()
    + doRotate()
    + moveDown()
    + moveUp()
    + moveRight()
    + moveLeft()
    + checkRight()
    + checkLeft()
    + checkUnder()
}

Piece<|- - IPiece
Piece<|- - JPiece
Piece<|- - LPiece
Piece<|- - OPiece
Piece<|- - SPiece
Piece<|- - TPiece
Piece<|- - ZPiece

class IPiece {
    + createForms()
    + checkIfFits()
    + checkRight2()
}
class JPiece {
    + createForms()
}
class LPiece {
    + createForms()
}
class OPiece {
    + createForms()
}
class SPiece {
    + createForms()
}
class TPiece {
    + createForms()
}
class ZPiece {
    + createForms()
}

@enduml

PlantUML version 1.2022.0(Tue Jan 11 16:16:42 GMT 2022)
(GPL source distribution)
Java Runtime: OpenJDK Runtime Environment
JVM: OpenJDK 64-Bit Server VM
Default Encoding: Cp1252
Language: pt
Country: PT
--></g></svg>