<?xml version="1.0" encoding="UTF-8" standalone="no"?><svg xmlns="http://www.w3.org/2000/svg" xmlns:xlink="http://www.w3.org/1999/xlink" contentScriptType="application/ecmascript" contentStyleType="text/css" height="957px" preserveAspectRatio="none" style="width:792px;height:957px;background:#FFFFFF;" version="1.1" viewBox="0 0 792 957" width="792px" zoomAndPan="magnify"><defs><filter height="300%" id="f1j4nmay8bzzs1" width="300%" x="-1" y="-1"><feGaussianBlur result="blurOut" stdDeviation="2.0"/><feColorMatrix in="blurOut" result="blurOut2" type="matrix" values="0 0 0 0 0 0 0 0 0 0 0 0 0 0 0 0 0 0 .4 0"/><feOffset dx="4.0" dy="4.0" in="blurOut2" result="blurOut3"/><feBlend in="SourceGraphic" in2="blurOut3" mode="normal"/></filter></defs><g><!--MD5=[f0268dd29ee89052933f031546cb1cab]
class Menu--><rect codeLine="110" fill="#FEFECE" filter="url(#f1j4nmay8bzzs1)" height="186.3594" id="Menu" style="stroke:#A80036;stroke-width:1.5;" width="143" x="315.83" y="7"/><ellipse cx="368.08" cy="23" fill="#ADD1B2" rx="11" ry="11" style="stroke:#A80036;stroke-width:1.0;"/><path d="M370.08,19.5 Q370.2831,19 370.5175,18.75 Q370.7519,18.5 371.0175,18.5 Q371.4863,18.5 371.7831,18.7813 Q372.08,19.0625 372.08,19.7188 L372.08,21.2813 Q372.08,21.9375 371.7988,22.2188 Q371.5175,22.5 371.08,22.5 Q370.6894,22.5 370.4394,22.3281 Q370.1894,22.1563 370.08,21.7031 Q370.0331,21.3906 369.8613,21.2188 Q369.5488,20.8906 368.9863,20.7031 Q368.4238,20.5 367.8613,20.5 Q367.1581,20.5 366.5644,20.7813 Q365.9863,21.0625 365.5331,21.6875 Q365.08,22.3125 365.08,23.1719 L365.08,24.0938 Q365.08,25.125 365.9238,25.8125 Q366.7675,26.5 368.2675,26.5 Q369.1581,26.5 369.7831,26.2969 Q370.1425,26.1875 370.5488,25.8281 Q370.8144,25.625 370.955,25.5625 Q371.0956,25.5 371.2675,25.5 Q371.5956,25.5 371.83,25.7656 Q372.08,26.0156 372.08,26.375 Q372.08,26.7188 371.7363,27.125 Q371.2363,27.7188 370.4394,28.0469 Q369.3925,28.5 368.1113,28.5 Q366.6113,28.5 365.4081,27.9063 Q364.4394,27.4375 363.7519,26.4219 Q363.08,25.4063 363.08,24.2031 L363.08,23.1094 Q363.08,21.8594 363.6738,20.7656 Q364.2831,19.6719 365.33,19.0938 Q366.3925,18.5 367.58,18.5 Q368.2988,18.5 368.9238,18.75 Q369.5488,19 370.08,19.5 Z " fill="#000000"/><text fill="#000000" font-family="sans-serif" font-size="12" lengthAdjust="spacing" textLength="30" x="388.58" y="27.9102">Menu</text><line style="stroke:#A80036;stroke-width:1.5;" x1="316.83" x2="457.83" y1="39" y2="39"/><rect fill="none" height="6" style="stroke:#C82930;stroke-width:1.0;" width="6" x="323.83" y="47"/><text fill="#000000" font-family="sans-serif" font-size="11" lengthAdjust="spacing" textLength="72" x="335.83" y="54.4189">painter: Painter</text><rect fill="none" height="6" style="stroke:#C82930;stroke-width:1.0;" width="6" x="323.83" y="60.8359"/><text fill="#000000" font-family="sans-serif" font-size="11" lengthAdjust="spacing" textLength="117" x="335.83" y="68.2549">screen: Terminal screen</text><rect fill="none" height="6" style="stroke:#C82930;stroke-width:1.0;" width="6" x="323.83" y="74.6719"/><text fill="#000000" font-family="sans-serif" font-size="11" lengthAdjust="spacing" textLength="94" x="335.83" y="82.0908">inputOptions: String</text><line style="stroke:#A80036;stroke-width:1.5;" x1="316.83" x2="457.83" y1="88.5078" y2="88.5078"/><ellipse cx="326.83" cy="99.5078" fill="#84BE84" rx="3" ry="3" style="stroke:#038048;stroke-width:1.0;"/><text fill="#000000" font-family="sans-serif" font-size="11" lengthAdjust="spacing" textLength="34" x="335.83" y="103.9268">Menu()</text><ellipse cx="326.83" cy="113.3438" fill="#84BE84" rx="3" ry="3" style="stroke:#038048;stroke-width:1.0;"/><text fill="#000000" font-family="sans-serif" font-size="11" lengthAdjust="spacing" textLength="24" x="335.83" y="117.7627">run()</text><ellipse cx="326.83" cy="127.1797" fill="#84BE84" rx="3" ry="3" style="stroke:#038048;stroke-width:1.0;"/><text fill="#000000" font-family="sans-serif" font-size="11" lengthAdjust="spacing" textLength="55" x="335.83" y="131.5986">printMenu()</text><ellipse cx="326.83" cy="141.0156" fill="#84BE84" rx="3" ry="3" style="stroke:#038048;stroke-width:1.0;"/><text fill="#000000" font-family="sans-serif" font-size="11" lengthAdjust="spacing" textLength="90" x="335.83" y="145.4346">getGraphicMatrix()</text><ellipse cx="326.83" cy="154.8516" fill="#84BE84" rx="3" ry="3" style="stroke:#038048;stroke-width:1.0;"/><text fill="#000000" font-family="sans-serif" font-size="11" lengthAdjust="spacing" textLength="107" x="335.83" y="159.2705">getMatrixFromColors()</text><ellipse cx="326.83" cy="168.6875" fill="#84BE84" rx="3" ry="3" style="stroke:#038048;stroke-width:1.0;"/><text fill="#000000" font-family="sans-serif" font-size="11" lengthAdjust="spacing" textLength="76" x="335.83" y="173.1064">checkForInput()</text><ellipse cx="326.83" cy="182.5234" fill="#84BE84" rx="3" ry="3" style="stroke:#038048;stroke-width:1.0;"/><text fill="#000000" font-family="sans-serif" font-size="11" lengthAdjust="spacing" textLength="53" x="335.83" y="186.9424">readInput()</text><!--MD5=[e05bacf3ff4416a0580578814d41bbf6]
class Piece--><rect codeLine="17" fill="#FEFECE" filter="url(#f1j4nmay8bzzs1)" height="435.4063" id="Piece" style="stroke:#A80036;stroke-width:1.5;" width="92" x="60.33" y="508"/><ellipse cx="88.38" cy="524" fill="#A9DCDF" rx="11" ry="11" style="stroke:#A80036;stroke-width:1.0;"/><path d="M90.13,525.5 L86.8331,525.5 L86.3956,526.5 L86.3956,526.5 L86.8644,526.5 L87.38,527.125 L87.38,527.5 L87.38,527.875 L86.8644,528.5 L86.3956,528.5 L84.505,528.5 L83.8956,528.5 L83.38,527.875 L83.38,527.5 L83.38,527.125 L83.8956,526.5 L84.505,526.5 L86.8175,520.5 L85.9425,520.5 L84.8956,520.5 L84.38,519.875 L84.38,519.5 L84.38,519.125 L84.8956,518.5 L85.9425,518.5 L89.6144,518.5 L92.3019,526.5 L92.8644,526.5 L92.8644,526.5 L93.38,527.125 L93.38,527.5 L93.38,527.875 L92.8644,528.5 L92.3019,528.5 L90.4113,528.5 L89.8956,528.5 L89.38,527.875 L89.38,527.5 L89.38,527.125 L89.8956,526.5 L90.4113,526.5 L90.4113,526.5 L90.13,525.5 Z M89.5831,523.5 L88.38,519.9219 L87.3488,523.5 L89.5831,523.5 Z " fill="#000000"/><text fill="#000000" font-family="sans-serif" font-size="12" font-style="italic" lengthAdjust="spacing" textLength="31" x="105.28" y="528.9102">Piece</text><line style="stroke:#A80036;stroke-width:1.5;" x1="61.33" x2="151.33" y1="540" y2="540"/><rect fill="none" height="6" style="stroke:#C82930;stroke-width:1.0;" width="6" x="68.33" y="548"/><text fill="#000000" font-family="sans-serif" font-size="11" lengthAdjust="spacing" textLength="51" x="80.33" y="555.4189">forms: List</text><rect fill="none" height="6" style="stroke:#C82930;stroke-width:1.0;" width="6" x="68.33" y="561.8359"/><text fill="#000000" font-family="sans-serif" font-size="11" lengthAdjust="spacing" textLength="53" x="80.33" y="569.2549">rotation: int</text><rect fill="none" height="6" style="stroke:#C82930;stroke-width:1.0;" width="6" x="68.33" y="575.6719"/><text fill="#000000" font-family="sans-serif" font-size="11" lengthAdjust="spacing" textLength="23" x="80.33" y="583.0908">x: int</text><rect fill="none" height="6" style="stroke:#C82930;stroke-width:1.0;" width="6" x="68.33" y="589.5078"/><text fill="#000000" font-family="sans-serif" font-size="11" lengthAdjust="spacing" textLength="23" x="80.33" y="596.9268">y: int</text><rect fill="none" height="6" style="stroke:#C82930;stroke-width:1.0;" width="6" x="68.33" y="603.3438"/><text fill="#000000" font-family="sans-serif" font-size="11" lengthAdjust="spacing" textLength="58" x="80.33" y="610.7627">color: String</text><rect fill="none" height="6" style="stroke:#C82930;stroke-width:1.0;" width="6" x="68.33" y="617.1797"/><text fill="#000000" font-family="sans-serif" font-size="11" lengthAdjust="spacing" textLength="46" x="80.33" y="624.5986">height: int</text><line style="stroke:#A80036;stroke-width:1.5;" x1="61.33" x2="151.33" y1="631.0156" y2="631.0156"/><ellipse cx="71.33" cy="642.0156" fill="#84BE84" rx="3" ry="3" style="stroke:#038048;stroke-width:1.0;"/><text fill="#000000" font-family="sans-serif" font-size="11" lengthAdjust="spacing" textLength="30" x="80.33" y="646.4346">getX()</text><ellipse cx="71.33" cy="655.8516" fill="#84BE84" rx="3" ry="3" style="stroke:#038048;stroke-width:1.0;"/><text fill="#000000" font-family="sans-serif" font-size="11" lengthAdjust="spacing" textLength="31" x="80.33" y="660.2705">getY()</text><ellipse cx="71.33" cy="669.6875" fill="#84BE84" rx="3" ry="3" style="stroke:#038048;stroke-width:1.0;"/><text fill="#000000" font-family="sans-serif" font-size="11" lengthAdjust="spacing" textLength="48" x="80.33" y="674.1064">getColor()</text><ellipse cx="71.33" cy="683.5234" fill="#84BE84" rx="3" ry="3" style="stroke:#038048;stroke-width:1.0;"/><text fill="#000000" font-family="sans-serif" font-size="11" lengthAdjust="spacing" textLength="53" x="80.33" y="687.9424">getHeight()</text><ellipse cx="71.33" cy="697.3594" fill="#84BE84" rx="3" ry="3" style="stroke:#038048;stroke-width:1.0;"/><text fill="#000000" font-family="sans-serif" font-size="11" lengthAdjust="spacing" textLength="62" x="80.33" y="701.7783">getRotation()</text><ellipse cx="71.33" cy="711.1953" fill="#84BE84" rx="3" ry="3" style="stroke:#038048;stroke-width:1.0;"/><text fill="#000000" font-family="sans-serif" font-size="11" lengthAdjust="spacing" textLength="47" x="80.33" y="715.6143">getForm()</text><ellipse cx="71.33" cy="725.0313" fill="#84BE84" rx="3" ry="3" style="stroke:#038048;stroke-width:1.0;"/><text fill="#000000" font-family="sans-serif" font-size="11" lengthAdjust="spacing" textLength="62" x="80.33" y="729.4502">setRotation()</text><ellipse cx="71.33" cy="738.8672" fill="#84BE84" rx="3" ry="3" style="stroke:#038048;stroke-width:1.0;"/><text fill="#000000" font-family="sans-serif" font-size="11" lengthAdjust="spacing" textLength="53" x="80.33" y="743.2861">setForms()</text><ellipse cx="71.33" cy="752.7031" fill="#84BE84" rx="3" ry="3" style="stroke:#038048;stroke-width:1.0;"/><text fill="#000000" font-family="sans-serif" font-size="11" lengthAdjust="spacing" textLength="48" x="80.33" y="757.1221">setColor()</text><ellipse cx="71.33" cy="766.5391" fill="#84BE84" rx="3" ry="3" style="stroke:#038048;stroke-width:1.0;"/><text fill="#000000" font-family="sans-serif" font-size="11" lengthAdjust="spacing" textLength="53" x="80.33" y="770.958">setHeight()</text><ellipse cx="71.33" cy="780.375" fill="#84BE84" rx="3" ry="3" style="stroke:#038048;stroke-width:1.0;"/><text fill="#000000" font-family="sans-serif" font-size="11" lengthAdjust="spacing" textLength="30" x="80.33" y="784.7939">setX()</text><ellipse cx="71.33" cy="794.2109" fill="#84BE84" rx="3" ry="3" style="stroke:#038048;stroke-width:1.0;"/><text fill="#000000" font-family="sans-serif" font-size="11" lengthAdjust="spacing" textLength="31" x="80.33" y="798.6299">setY()</text><ellipse cx="71.33" cy="808.0469" fill="#84BE84" rx="3" ry="3" style="stroke:#038048;stroke-width:1.0;"/><text fill="#000000" font-family="sans-serif" font-size="11" lengthAdjust="spacing" textLength="36" x="80.33" y="812.4658">rotate()</text><ellipse cx="71.33" cy="821.8828" fill="#84BE84" rx="3" ry="3" style="stroke:#038048;stroke-width:1.0;"/><text fill="#000000" font-family="sans-serif" font-size="11" lengthAdjust="spacing" textLength="60" x="80.33" y="826.3018">checkIfFits()</text><ellipse cx="71.33" cy="835.7188" fill="#84BE84" rx="3" ry="3" style="stroke:#038048;stroke-width:1.0;"/><text fill="#000000" font-family="sans-serif" font-size="11" lengthAdjust="spacing" textLength="51" x="80.33" y="840.1377">deRotate()</text><ellipse cx="71.33" cy="849.5547" fill="#84BE84" rx="3" ry="3" style="stroke:#038048;stroke-width:1.0;"/><text fill="#000000" font-family="sans-serif" font-size="11" lengthAdjust="spacing" textLength="61" x="80.33" y="853.9736">checkRight()</text><ellipse cx="71.33" cy="863.3906" fill="#84BE84" rx="3" ry="3" style="stroke:#038048;stroke-width:1.0;"/><text fill="#000000" font-family="sans-serif" font-size="11" lengthAdjust="spacing" textLength="56" x="80.33" y="867.8096">checkLeft()</text><ellipse cx="71.33" cy="877.2266" fill="#84BE84" rx="3" ry="3" style="stroke:#038048;stroke-width:1.0;"/><text fill="#000000" font-family="sans-serif" font-size="11" lengthAdjust="spacing" textLength="66" x="80.33" y="881.6455">checkUnder()</text><ellipse cx="71.33" cy="891.0625" fill="#84BE84" rx="3" ry="3" style="stroke:#038048;stroke-width:1.0;"/><text fill="#000000" font-family="sans-serif" font-size="11" lengthAdjust="spacing" textLength="63" x="80.33" y="895.4814">moveDown()</text><ellipse cx="71.33" cy="904.8984" fill="#84BE84" rx="3" ry="3" style="stroke:#038048;stroke-width:1.0;"/><text fill="#000000" font-family="sans-serif" font-size="11" lengthAdjust="spacing" textLength="47" x="80.33" y="909.3174">moveUp()</text><ellipse cx="71.33" cy="918.7344" fill="#84BE84" rx="3" ry="3" style="stroke:#038048;stroke-width:1.0;"/><text fill="#000000" font-family="sans-serif" font-size="11" lengthAdjust="spacing" textLength="58" x="80.33" y="923.1533">moveRight()</text><ellipse cx="71.33" cy="932.5703" fill="#84BE84" rx="3" ry="3" style="stroke:#038048;stroke-width:1.0;"/><text fill="#000000" font-family="sans-serif" font-size="11" lengthAdjust="spacing" textLength="53" x="80.33" y="936.9893">moveLeft()</text><!--MD5=[1f24f7b92150e3316908f7910ce81742]
class Grid--><rect codeLine="48" fill="#FEFECE" filter="url(#f1j4nmay8bzzs1)" height="366.2266" id="Grid" style="stroke:#A80036;stroke-width:1.5;" width="138" x="487.33" y="542.5"/><ellipse cx="540.58" cy="558.5" fill="#ADD1B2" rx="11" ry="11" style="stroke:#A80036;stroke-width:1.0;"/><path d="M542.58,555 Q542.7831,554.5 543.0175,554.25 Q543.2519,554 543.5175,554 Q543.9862,554 544.2831,554.2813 Q544.58,554.5625 544.58,555.2188 L544.58,556.7813 Q544.58,557.4375 544.2987,557.7188 Q544.0175,558 543.58,558 Q543.1894,558 542.9394,557.8281 Q542.6894,557.6563 542.58,557.2031 Q542.5331,556.8906 542.3612,556.7188 Q542.0487,556.3906 541.4862,556.2031 Q540.9237,556 540.3612,556 Q539.6581,556 539.0644,556.2813 Q538.4862,556.5625 538.0331,557.1875 Q537.58,557.8125 537.58,558.6719 L537.58,559.5938 Q537.58,560.625 538.4237,561.3125 Q539.2675,562 540.7675,562 Q541.6581,562 542.2831,561.7969 Q542.6425,561.6875 543.0487,561.3281 Q543.3144,561.125 543.455,561.0625 Q543.5956,561 543.7675,561 Q544.0956,561 544.33,561.2656 Q544.58,561.5156 544.58,561.875 Q544.58,562.2188 544.2362,562.625 Q543.7362,563.2188 542.9394,563.5469 Q541.8925,564 540.6112,564 Q539.1112,564 537.9081,563.4063 Q536.9394,562.9375 536.2519,561.9219 Q535.58,560.9063 535.58,559.7031 L535.58,558.6094 Q535.58,557.3594 536.1737,556.2656 Q536.7831,555.1719 537.83,554.5938 Q538.8925,554 540.08,554 Q540.7987,554 541.4237,554.25 Q542.0487,554.5 542.58,555 Z " fill="#000000"/><text fill="#000000" font-family="sans-serif" font-size="12" lengthAdjust="spacing" textLength="23" x="561.08" y="563.4102">Grid</text><line style="stroke:#A80036;stroke-width:1.5;" x1="488.33" x2="624.33" y1="574.5" y2="574.5"/><rect fill="none" height="6" style="stroke:#C82930;stroke-width:1.0;" width="6" x="495.33" y="582.5"/><text fill="#000000" font-family="sans-serif" font-size="11" lengthAdjust="spacing" textLength="52" x="507.33" y="589.9189">matrix: List</text><rect fill="none" height="6" style="stroke:#C82930;stroke-width:1.0;" width="6" x="495.33" y="596.3359"/><text fill="#000000" font-family="sans-serif" font-size="11" lengthAdjust="spacing" textLength="44" x="507.33" y="603.7549">width: int</text><rect fill="none" height="6" style="stroke:#C82930;stroke-width:1.0;" width="6" x="495.33" y="610.1719"/><text fill="#000000" font-family="sans-serif" font-size="11" lengthAdjust="spacing" textLength="46" x="507.33" y="617.5908">height: int</text><rect fill="none" height="6" style="stroke:#C82930;stroke-width:1.0;" width="6" x="495.33" y="624.0078"/><text fill="#000000" font-family="sans-serif" font-size="11" lengthAdjust="spacing" textLength="23" x="507.33" y="631.4268">x: int</text><rect fill="none" height="6" style="stroke:#C82930;stroke-width:1.0;" width="6" x="495.33" y="637.8438"/><text fill="#000000" font-family="sans-serif" font-size="11" lengthAdjust="spacing" textLength="23" x="507.33" y="645.2627">y: int</text><rect fill="none" height="6" style="stroke:#C82930;stroke-width:1.0;" width="6" x="495.33" y="651.6797"/><text fill="#000000" font-family="sans-serif" font-size="11" lengthAdjust="spacing" textLength="63" x="507.33" y="659.0986">blockSize: int</text><rect fill="none" height="6" style="stroke:#C82930;stroke-width:1.0;" width="6" x="495.33" y="665.5156"/><text fill="#000000" font-family="sans-serif" font-size="11" lengthAdjust="spacing" textLength="68" x="507.33" y="672.9346">blankLine: List</text><rect fill="none" height="6" style="stroke:#C82930;stroke-width:1.0;" width="6" x="495.33" y="679.3516"/><text fill="#000000" font-family="sans-serif" font-size="11" lengthAdjust="spacing" textLength="112" x="507.33" y="686.7705">defaultGridColor: String</text><line style="stroke:#A80036;stroke-width:1.5;" x1="488.33" x2="624.33" y1="693.1875" y2="693.1875"/><ellipse cx="498.33" cy="704.1875" fill="#84BE84" rx="3" ry="3" style="stroke:#038048;stroke-width:1.0;"/><text fill="#000000" font-family="sans-serif" font-size="11" lengthAdjust="spacing" textLength="28" x="507.33" y="708.6064">Grid()</text><ellipse cx="498.33" cy="718.0234" fill="#84BE84" rx="3" ry="3" style="stroke:#038048;stroke-width:1.0;"/><text fill="#000000" font-family="sans-serif" font-size="11" lengthAdjust="spacing" textLength="62" x="507.33" y="722.4424">creatMatrix()</text><ellipse cx="498.33" cy="731.8594" fill="#84BE84" rx="3" ry="3" style="stroke:#038048;stroke-width:1.0;"/><text fill="#000000" font-family="sans-serif" font-size="11" lengthAdjust="spacing" textLength="88" x="507.33" y="736.2783">creatMatrixPiece()</text><ellipse cx="498.33" cy="745.6953" fill="#84BE84" rx="3" ry="3" style="stroke:#038048;stroke-width:1.0;"/><text fill="#000000" font-family="sans-serif" font-size="11" lengthAdjust="spacing" textLength="53" x="507.33" y="750.1143">getHeight()</text><ellipse cx="498.33" cy="759.5313" fill="#84BE84" rx="3" ry="3" style="stroke:#038048;stroke-width:1.0;"/><text fill="#000000" font-family="sans-serif" font-size="11" lengthAdjust="spacing" textLength="50" x="507.33" y="763.9502">getWidth()</text><ellipse cx="498.33" cy="773.3672" fill="#84BE84" rx="3" ry="3" style="stroke:#038048;stroke-width:1.0;"/><text fill="#000000" font-family="sans-serif" font-size="11" lengthAdjust="spacing" textLength="30" x="507.33" y="777.7861">getX()</text><ellipse cx="498.33" cy="787.2031" fill="#84BE84" rx="3" ry="3" style="stroke:#038048;stroke-width:1.0;"/><text fill="#000000" font-family="sans-serif" font-size="11" lengthAdjust="spacing" textLength="31" x="507.33" y="791.6221">getY()</text><ellipse cx="498.33" cy="801.0391" fill="#84BE84" rx="3" ry="3" style="stroke:#038048;stroke-width:1.0;"/><text fill="#000000" font-family="sans-serif" font-size="11" lengthAdjust="spacing" textLength="70" x="507.33" y="805.458">getBlockSize()</text><ellipse cx="498.33" cy="814.875" fill="#84BE84" rx="3" ry="3" style="stroke:#038048;stroke-width:1.0;"/><text fill="#000000" font-family="sans-serif" font-size="11" lengthAdjust="spacing" textLength="52" x="507.33" y="819.2939">getMatrix()</text><ellipse cx="498.33" cy="828.7109" fill="#84BE84" rx="3" ry="3" style="stroke:#038048;stroke-width:1.0;"/><text fill="#000000" font-family="sans-serif" font-size="11" lengthAdjust="spacing" textLength="52" x="507.33" y="833.1299">setMatrix()</text><ellipse cx="498.33" cy="842.5469" fill="#84BE84" rx="3" ry="3" style="stroke:#038048;stroke-width:1.0;"/><text fill="#000000" font-family="sans-serif" font-size="11" lengthAdjust="spacing" textLength="40" x="507.33" y="846.9658">isValid()</text><ellipse cx="498.33" cy="856.3828" fill="#84BE84" rx="3" ry="3" style="stroke:#038048;stroke-width:1.0;"/><text fill="#000000" font-family="sans-serif" font-size="11" lengthAdjust="spacing" textLength="52" x="507.33" y="860.8018">addPiece()</text><ellipse cx="498.33" cy="870.2188" fill="#84BE84" rx="3" ry="3" style="stroke:#038048;stroke-width:1.0;"/><text fill="#000000" font-family="sans-serif" font-size="11" lengthAdjust="spacing" textLength="70" x="507.33" y="874.6377">removeLines()</text><ellipse cx="498.33" cy="884.0547" fill="#84BE84" rx="3" ry="3" style="stroke:#038048;stroke-width:1.0;"/><text fill="#000000" font-family="sans-serif" font-size="11" lengthAdjust="spacing" textLength="56" x="507.33" y="888.4736">verifyLine()</text><ellipse cx="498.33" cy="897.8906" fill="#84BE84" rx="3" ry="3" style="stroke:#038048;stroke-width:1.0;"/><text fill="#000000" font-family="sans-serif" font-size="11" lengthAdjust="spacing" textLength="64" x="507.33" y="902.3096">removeLine()</text><!--MD5=[f288f161ca34f2b8d2c197748aa379a9]
class PointCounter--><rect codeLine="83" fill="#FEFECE" filter="url(#f1j4nmay8bzzs1)" height="200.1953" id="PointCounter" style="stroke:#A80036;stroke-width:1.5;" width="111" x="320.83" y="625.5"/><ellipse cx="338.98" cy="641.5" fill="#ADD1B2" rx="11" ry="11" style="stroke:#A80036;stroke-width:1.0;"/><path d="M340.98,638 Q341.1831,637.5 341.4175,637.25 Q341.6519,637 341.9175,637 Q342.3862,637 342.6831,637.2813 Q342.98,637.5625 342.98,638.2188 L342.98,639.7813 Q342.98,640.4375 342.6987,640.7188 Q342.4175,641 341.98,641 Q341.5894,641 341.3394,640.8281 Q341.0894,640.6563 340.98,640.2031 Q340.9331,639.8906 340.7612,639.7188 Q340.4487,639.3906 339.8862,639.2031 Q339.3237,639 338.7612,639 Q338.0581,639 337.4644,639.2813 Q336.8862,639.5625 336.4331,640.1875 Q335.98,640.8125 335.98,641.6719 L335.98,642.5938 Q335.98,643.625 336.8237,644.3125 Q337.6675,645 339.1675,645 Q340.0581,645 340.6831,644.7969 Q341.0425,644.6875 341.4487,644.3281 Q341.7144,644.125 341.855,644.0625 Q341.9956,644 342.1675,644 Q342.4956,644 342.73,644.2656 Q342.98,644.5156 342.98,644.875 Q342.98,645.2188 342.6362,645.625 Q342.1362,646.2188 341.3394,646.5469 Q340.2925,647 339.0112,647 Q337.5112,647 336.3081,646.4063 Q335.3394,645.9375 334.6519,644.9219 Q333.98,643.9063 333.98,642.7031 L333.98,641.6094 Q333.98,640.3594 334.5737,639.2656 Q335.1831,638.1719 336.23,637.5938 Q337.2925,637 338.48,637 Q339.1987,637 339.8237,637.25 Q340.4487,637.5 340.98,638 Z " fill="#000000"/><text fill="#000000" font-family="sans-serif" font-size="12" lengthAdjust="spacing" textLength="72" x="353.68" y="646.4102">PointCounter</text><line style="stroke:#A80036;stroke-width:1.5;" x1="321.83" x2="430.83" y1="657.5" y2="657.5"/><rect fill="none" height="6" style="stroke:#C82930;stroke-width:1.0;" width="6" x="328.83" y="665.5"/><text fill="#000000" font-family="sans-serif" font-size="11" lengthAdjust="spacing" textLength="46" x="340.83" y="672.9189">points: int</text><rect fill="none" height="6" style="stroke:#C82930;stroke-width:1.0;" width="6" x="328.83" y="679.3359"/><text fill="#000000" font-family="sans-serif" font-size="11" lengthAdjust="spacing" textLength="39" x="340.83" y="686.7549">level: int</text><rect fill="none" height="6" style="stroke:#C82930;stroke-width:1.0;" width="6" x="328.83" y="693.1719"/><text fill="#000000" font-family="sans-serif" font-size="11" lengthAdjust="spacing" textLength="79" x="340.83" y="700.5908">clearedLines: int</text><rect fill="none" height="6" style="stroke:#C82930;stroke-width:1.0;" width="6" x="328.83" y="707.0078"/><text fill="#000000" font-family="sans-serif" font-size="11" lengthAdjust="spacing" textLength="85" x="340.83" y="714.4268">inCombo: boolean</text><line style="stroke:#A80036;stroke-width:1.5;" x1="321.83" x2="430.83" y1="720.8438" y2="720.8438"/><ellipse cx="331.83" cy="731.8438" fill="#84BE84" rx="3" ry="3" style="stroke:#038048;stroke-width:1.0;"/><text fill="#000000" font-family="sans-serif" font-size="11" lengthAdjust="spacing" textLength="69" x="340.83" y="736.2627">PointCounter()</text><ellipse cx="331.83" cy="745.6797" fill="#84BE84" rx="3" ry="3" style="stroke:#038048;stroke-width:1.0;"/><text fill="#000000" font-family="sans-serif" font-size="11" lengthAdjust="spacing" textLength="52" x="340.83" y="750.0986">getPoints()</text><ellipse cx="331.83" cy="759.5156" fill="#84BE84" rx="3" ry="3" style="stroke:#038048;stroke-width:1.0;"/><text fill="#000000" font-family="sans-serif" font-size="11" lengthAdjust="spacing" textLength="49" x="340.83" y="763.9346">getLevel()</text><ellipse cx="331.83" cy="773.3516" fill="#84BE84" rx="3" ry="3" style="stroke:#038048;stroke-width:1.0;"/><text fill="#000000" font-family="sans-serif" font-size="11" lengthAdjust="spacing" textLength="52" x="340.83" y="777.7705">setPoints()</text><ellipse cx="331.83" cy="787.1875" fill="#84BE84" rx="3" ry="3" style="stroke:#038048;stroke-width:1.0;"/><text fill="#000000" font-family="sans-serif" font-size="11" lengthAdjust="spacing" textLength="74" x="340.83" y="791.6064">processLines()</text><ellipse cx="331.83" cy="801.0234" fill="#84BE84" rx="3" ry="3" style="stroke:#038048;stroke-width:1.0;"/><text fill="#000000" font-family="sans-serif" font-size="11" lengthAdjust="spacing" textLength="74" x="340.83" y="805.4424">processLevel()</text><ellipse cx="331.83" cy="814.8594" fill="#84BE84" rx="3" ry="3" style="stroke:#038048;stroke-width:1.0;"/><text fill="#000000" font-family="sans-serif" font-size="11" lengthAdjust="spacing" textLength="75" x="340.83" y="819.2783">getLevelTimer()</text><!--MD5=[1d7dacaa67456c23b281e9e514ca0fd0]
class Painter--><rect codeLine="74" fill="#FEFECE" filter="url(#f1j4nmay8bzzs1)" height="117.1797" id="Painter" style="stroke:#A80036;stroke-width:1.5;" width="125" x="324.83" y="292"/><ellipse cx="364.13" cy="308" fill="#ADD1B2" rx="11" ry="11" style="stroke:#A80036;stroke-width:1.0;"/><path d="M366.13,304.5 Q366.3331,304 366.5675,303.75 Q366.8019,303.5 367.0675,303.5 Q367.5363,303.5 367.8331,303.7813 Q368.13,304.0625 368.13,304.7188 L368.13,306.2813 Q368.13,306.9375 367.8488,307.2188 Q367.5675,307.5 367.13,307.5 Q366.7394,307.5 366.4894,307.3281 Q366.2394,307.1563 366.13,306.7031 Q366.0831,306.3906 365.9113,306.2188 Q365.5988,305.8906 365.0363,305.7031 Q364.4738,305.5 363.9113,305.5 Q363.2081,305.5 362.6144,305.7813 Q362.0363,306.0625 361.5831,306.6875 Q361.13,307.3125 361.13,308.1719 L361.13,309.0938 Q361.13,310.125 361.9738,310.8125 Q362.8175,311.5 364.3175,311.5 Q365.2081,311.5 365.8331,311.2969 Q366.1925,311.1875 366.5988,310.8281 Q366.8644,310.625 367.005,310.5625 Q367.1456,310.5 367.3175,310.5 Q367.6456,310.5 367.88,310.7656 Q368.13,311.0156 368.13,311.375 Q368.13,311.7188 367.7863,312.125 Q367.2863,312.7188 366.4894,313.0469 Q365.4425,313.5 364.1613,313.5 Q362.6613,313.5 361.4581,312.9063 Q360.4894,312.4375 359.8019,311.4219 Q359.13,310.4063 359.13,309.2031 L359.13,308.1094 Q359.13,306.8594 359.7238,305.7656 Q360.3331,304.6719 361.38,304.0938 Q362.4425,303.5 363.63,303.5 Q364.3488,303.5 364.9738,303.75 Q365.5988,304 366.13,304.5 Z " fill="#000000"/><text fill="#000000" font-family="sans-serif" font-size="12" lengthAdjust="spacing" textLength="39" x="383.53" y="312.9102">Painter</text><line style="stroke:#A80036;stroke-width:1.5;" x1="325.83" x2="448.83" y1="324" y2="324"/><rect fill="none" height="6" style="stroke:#C82930;stroke-width:1.0;" width="6" x="332.83" y="332"/><text fill="#000000" font-family="sans-serif" font-size="11" lengthAdjust="spacing" textLength="99" x="344.83" y="339.4189">board: TextGraphics</text><line style="stroke:#A80036;stroke-width:1.5;" x1="325.83" x2="448.83" y1="345.8359" y2="345.8359"/><ellipse cx="335.83" cy="356.8359" fill="#84BE84" rx="3" ry="3" style="stroke:#038048;stroke-width:1.0;"/><text fill="#000000" font-family="sans-serif" font-size="11" lengthAdjust="spacing" textLength="51" x="344.83" y="361.2549">paintGrid()</text><ellipse cx="335.83" cy="370.6719" fill="#84BE84" rx="3" ry="3" style="stroke:#038048;stroke-width:1.0;"/><text fill="#000000" font-family="sans-serif" font-size="11" lengthAdjust="spacing" textLength="68" x="344.83" y="375.0908">paintGridList()</text><ellipse cx="335.83" cy="384.5078" fill="#84BE84" rx="3" ry="3" style="stroke:#038048;stroke-width:1.0;"/><text fill="#000000" font-family="sans-serif" font-size="11" lengthAdjust="spacing" textLength="57" x="344.83" y="388.9268">paintPiece()</text><ellipse cx="335.83" cy="398.3438" fill="#84BE84" rx="3" ry="3" style="stroke:#038048;stroke-width:1.0;"/><text fill="#000000" font-family="sans-serif" font-size="11" lengthAdjust="spacing" textLength="52" x="344.83" y="402.7627">paintText()</text><!--MD5=[cfc376b34c47317f714b23e021b15070]
class MusicPlayer--><rect codeLine="98" fill="#FEFECE" filter="url(#f1j4nmay8bzzs1)" height="158.6875" id="MusicPlayer" style="stroke:#A80036;stroke-width:1.5;" width="131" x="155.83" y="271"/><ellipse cx="185.68" cy="287" fill="#ADD1B2" rx="11" ry="11" style="stroke:#A80036;stroke-width:1.0;"/><path d="M187.68,283.5 Q187.8831,283 188.1175,282.75 Q188.3519,282.5 188.6175,282.5 Q189.0863,282.5 189.3831,282.7813 Q189.68,283.0625 189.68,283.7188 L189.68,285.2813 Q189.68,285.9375 189.3988,286.2188 Q189.1175,286.5 188.68,286.5 Q188.2894,286.5 188.0394,286.3281 Q187.7894,286.1563 187.68,285.7031 Q187.6331,285.3906 187.4613,285.2188 Q187.1488,284.8906 186.5863,284.7031 Q186.0238,284.5 185.4613,284.5 Q184.7581,284.5 184.1644,284.7813 Q183.5863,285.0625 183.1331,285.6875 Q182.68,286.3125 182.68,287.1719 L182.68,288.0938 Q182.68,289.125 183.5238,289.8125 Q184.3675,290.5 185.8675,290.5 Q186.7581,290.5 187.3831,290.2969 Q187.7425,290.1875 188.1488,289.8281 Q188.4144,289.625 188.555,289.5625 Q188.6956,289.5 188.8675,289.5 Q189.1956,289.5 189.43,289.7656 Q189.68,290.0156 189.68,290.375 Q189.68,290.7188 189.3363,291.125 Q188.8363,291.7188 188.0394,292.0469 Q186.9925,292.5 185.7113,292.5 Q184.2113,292.5 183.0081,291.9063 Q182.0394,291.4375 181.3519,290.4219 Q180.68,289.4063 180.68,288.2031 L180.68,287.1094 Q180.68,285.8594 181.2738,284.7656 Q181.8831,283.6719 182.93,283.0938 Q183.9925,282.5 185.18,282.5 Q185.8988,282.5 186.5238,282.75 Q187.1488,283 187.68,283.5 Z " fill="#000000"/><text fill="#000000" font-family="sans-serif" font-size="12" lengthAdjust="spacing" textLength="66" x="202.98" y="291.9102">MusicPlayer</text><line style="stroke:#A80036;stroke-width:1.5;" x1="156.83" x2="285.83" y1="303" y2="303"/><rect fill="none" height="6" style="stroke:#C82930;stroke-width:1.0;" width="6" x="163.83" y="311"/><text fill="#000000" font-family="sans-serif" font-size="11" lengthAdjust="spacing" textLength="105" x="175.83" y="318.4189">backgroundMusic:Clip</text><rect fill="none" height="6" style="stroke:#C82930;stroke-width:1.0;" width="6" x="163.83" y="324.8359"/><text fill="#000000" font-family="sans-serif" font-size="11" lengthAdjust="spacing" textLength="99" x="175.83" y="332.2549">dropPieceSound:Clip</text><rect fill="none" height="6" style="stroke:#C82930;stroke-width:1.0;" width="6" x="163.83" y="338.6719"/><text fill="#000000" font-family="sans-serif" font-size="11" lengthAdjust="spacing" textLength="99" x="175.83" y="346.0908">in: AudioInputStream</text><line style="stroke:#A80036;stroke-width:1.5;" x1="156.83" x2="285.83" y1="352.5078" y2="352.5078"/><ellipse cx="166.83" cy="363.5078" fill="#84BE84" rx="3" ry="3" style="stroke:#038048;stroke-width:1.0;"/><text fill="#000000" font-family="sans-serif" font-size="11" lengthAdjust="spacing" textLength="66" x="175.83" y="367.9268">MusicPlayer()</text><ellipse cx="166.83" cy="377.3438" fill="#84BE84" rx="3" ry="3" style="stroke:#038048;stroke-width:1.0;"/><text fill="#000000" font-family="sans-serif" font-size="11" lengthAdjust="spacing" textLength="56" x="175.83" y="381.7627">loadMusic()</text><ellipse cx="166.83" cy="391.1797" fill="#84BE84" rx="3" ry="3" style="stroke:#038048;stroke-width:1.0;"/><text fill="#000000" font-family="sans-serif" font-size="11" lengthAdjust="spacing" textLength="82" x="175.83" y="395.5986">loadDropSound()</text><ellipse cx="166.83" cy="405.0156" fill="#84BE84" rx="3" ry="3" style="stroke:#038048;stroke-width:1.0;"/><text fill="#000000" font-family="sans-serif" font-size="11" lengthAdjust="spacing" textLength="75" x="175.83" y="409.4346">pieceDropped()</text><ellipse cx="166.83" cy="418.8516" fill="#84BE84" rx="3" ry="3" style="stroke:#038048;stroke-width:1.0;"/><text fill="#000000" font-family="sans-serif" font-size="11" lengthAdjust="spacing" textLength="58" x="175.83" y="423.2705">startMusic()</text><!--MD5=[a52862bf14d43045f39083d3d66adf2d]
link Menu to Piece--><path codeLine="3" d="M315.53,116.19 C238.55,136.73 120.16,181.58 66.33,271 C6,371.22 28.8,507.13 58.77,603.98 " fill="none" id="Menu-to-Piece" style="stroke:#A80036;stroke-width:1.0;"/><polygon fill="#A80036" points="60.29,608.85,61.4068,599.0647,58.7905,604.0801,53.775,601.4639,60.29,608.85" style="stroke:#A80036;stroke-width:1.0;"/><text fill="#000000" font-family="sans-serif" font-size="13" lengthAdjust="spacing" textLength="70" x="67.33" y="355.9951">manipulates</text><!--MD5=[d251a1f32e32d0c67d713a27626d0d3b]
link Menu to Grid--><path codeLine="4" d="M458.99,119.11 C530.87,141.52 637.69,187.38 686.33,271 C751.1,382.33 687.24,528 628.34,623.82 " fill="none" id="Menu-to-Grid" style="stroke:#A80036;stroke-width:1.0;"/><polygon fill="#A80036" points="625.54,628.35,633.6936,622.8257,628.1836,624.106,626.9032,618.5959,625.54,628.35" style="stroke:#A80036;stroke-width:1.0;"/><text fill="#000000" font-family="sans-serif" font-size="13" lengthAdjust="spacing" textLength="70" x="714.33" y="355.9951">manipulates</text><!--MD5=[60f338e1afbe28cbd019ed3a82bb42d3]
link Menu to PointCounter--><path codeLine="5" d="M459.01,161.66 C542.33,239.53 659.08,376.68 581.33,478 C549.96,518.88 508.3,474.28 469.33,508 C435.82,537 414.01,580.24 400.01,620.46 " fill="none" id="Menu-to-PointCounter" style="stroke:#A80036;stroke-width:1.0;"/><polygon fill="#A80036" points="398.34,625.35,405.0332,618.125,399.9554,620.6181,397.4622,615.5403,398.34,625.35" style="stroke:#A80036;stroke-width:1.0;"/><text fill="#000000" font-family="sans-serif" font-size="13" lengthAdjust="spacing" textLength="70" x="607.33" y="355.9951">manipulates</text><!--MD5=[bbc15eba6158690e890cd4e547a9fbe6]
link Painter to Piece--><path codeLine="6" d="M343.73,409.37 C292.8,476.98 208.73,588.57 155.51,659.22 " fill="none" id="Painter-to-Piece" style="stroke:#A80036;stroke-width:1.0;"/><polygon fill="#A80036" points="152.37,663.39,160.9891,658.6245,155.386,659.402,154.6084,653.7989,152.37,663.39" style="stroke:#A80036;stroke-width:1.0;"/><text fill="#000000" font-family="sans-serif" font-size="13" lengthAdjust="spacing" textLength="48" x="305.33" y="474.4951">displays</text><!--MD5=[af783ebf35d06425b83d5d07e88c9abb]
link Painter to Grid--><path codeLine="7" d="M449.85,389.1 C474.82,407.36 501.38,431.53 517.33,460 C530.58,483.63 539.81,510.24 546.17,537.23 " fill="none" id="Painter-to-Grid" style="stroke:#A80036;stroke-width:1.0;"/><polygon fill="#A80036" points="547.33,542.28,549.2286,532.6159,546.2182,537.4052,541.4289,534.3948,547.33,542.28" style="stroke:#A80036;stroke-width:1.0;"/><text fill="#000000" font-family="sans-serif" font-size="13" lengthAdjust="spacing" textLength="48" x="524.33" y="474.4951">displays</text><!--MD5=[fd362e55244d5e7e36792c7f1c08aeff]
link Painter to PointCounter--><path codeLine="8" d="M378.5,409.08 C376.37,425.49 374.4,443.42 373.33,460 C369.94,512.73 370.21,571.49 371.52,620.21 " fill="none" id="Painter-to-PointCounter" style="stroke:#A80036;stroke-width:1.0;"/><polygon fill="#A80036" points="371.67,625.49,375.4373,616.3902,371.5415,620.4917,367.44,616.5958,371.67,625.49" style="stroke:#A80036;stroke-width:1.0;"/><text fill="#000000" font-family="sans-serif" font-size="13" lengthAdjust="spacing" textLength="48" x="374.33" y="474.4951">displays</text><!--MD5=[2cc229513defb12fb6b9b8ee9852991a]
link Painter to Menu--><path codeLine="9" d="M385.44,291.79 C384.98,275.38 384.56,257.49 384.33,241 C384.14,227.25 384.18,212.75 384.36,198.49 " fill="none" id="Painter-to-Menu" style="stroke:#A80036;stroke-width:1.0;"/><polygon fill="#A80036" points="384.43,193.25,380.3018,202.1919,384.3586,198.2495,388.301,202.3062,384.43,193.25" style="stroke:#A80036;stroke-width:1.0;"/><text fill="#000000" font-family="sans-serif" font-size="13" lengthAdjust="spacing" textLength="42" x="385.33" y="237.4951">actions</text><!--MD5=[aaa978ebe6943edfdbce502c112dba73]
link Menu to Painter--><path codeLine="14" d="M430.94,193.22 C434.36,209 435.45,225.35 432.33,241 C429.27,256.36 424,272.28 418.11,287.02 " fill="none" id="Menu-to-Painter" style="stroke:#A80036;stroke-width:1.0;"/><polygon fill="#A80036" points="416.09,291.98,423.19,285.1544,417.9765,287.3495,415.7813,282.136,416.09,291.98" style="stroke:#A80036;stroke-width:1.0;"/><text fill="#000000" font-family="sans-serif" font-size="13" lengthAdjust="spacing" textLength="43" x="435.33" y="237.4951">renders</text><!--MD5=[3d6d6fc1967eaa1cee6d76d3bd378c1f]
link MusicPlayer to Menu--><path codeLine="10" d="M273.82,270.93 C289.41,247.58 306.68,221.73 322.94,197.39 " fill="none" id="MusicPlayer-to-Menu" style="stroke:#A80036;stroke-width:1.0;"/><polygon fill="#A80036" points="325.75,193.18,317.417,198.4299,322.9666,197.3337,324.0628,202.8833,325.75,193.18" style="stroke:#A80036;stroke-width:1.0;"/><text fill="#000000" font-family="sans-serif" font-size="13" lengthAdjust="spacing" textLength="42" x="305.33" y="237.4951">actions</text><!--MD5=[02eb93eaa20b2300a8ce8e66d07e7170]
link Menu to MusicPlayer--><path codeLine="15" d="M315.61,145.23 C288.48,165.59 259.92,192.13 242.33,223 C234.9,236.03 229.93,250.97 226.64,265.9 " fill="none" id="Menu-to-MusicPlayer" style="stroke:#A80036;stroke-width:1.0;"/><polygon fill="#A80036" points="225.58,270.97,231.3436,262.9837,226.6072,266.0766,223.5142,261.3402,225.58,270.97" style="stroke:#A80036;stroke-width:1.0;"/><text fill="#000000" font-family="sans-serif" font-size="13" lengthAdjust="spacing" textLength="43" x="243.33" y="237.4951">renders</text><!--MD5=[e2512faa993ed7fdd15e73d207d82317]
link MusicPlayer to Piece--><path codeLine="11" d="M155.63,407.91 C130.27,430.43 106.52,452.74 103.33,460 C97.36,473.6 92.95,487.99 89.79,502.74 " fill="none" id="MusicPlayer-to-Piece" style="stroke:#A80036;stroke-width:1.0;"/><polygon fill="#A80036" points="88.77,507.76,94.4889,499.7416,89.7698,502.861,86.6504,498.1419,88.77,507.76" style="stroke:#A80036;stroke-width:1.0;"/><text fill="#000000" font-family="sans-serif" font-size="13" lengthAdjust="spacing" textLength="48" x="104.33" y="474.4951">displays</text><!--MD5=[93716d0ef5cd5a2bb3492a270afc678e]
link MusicPlayer to Grid--><path codeLine="12" d="M286.98,417.06 C293.56,421.86 300.38,426.27 307.33,430 C355.77,455.99 384.62,425.39 427.33,460 C453.34,481.08 474.49,508.69 491.56,538.12 " fill="none" id="MusicPlayer-to-Grid" style="stroke:#A80036;stroke-width:1.0;"/><polygon fill="#A80036" points="494.05,542.48,493.0612,532.6809,491.5708,538.1379,486.1138,536.6475,494.05,542.48" style="stroke:#A80036;stroke-width:1.0;"/><text fill="#000000" font-family="sans-serif" font-size="13" lengthAdjust="spacing" textLength="48" x="446.33" y="474.4951">displays</text><!--MD5=[7fa667e70c555ea307ee060f15bef46e]
link MusicPlayer to PointCounter--><path codeLine="13" d="M190.8,430.11 C188.24,446.12 188.28,462.73 193.33,478 C217.66,551.59 273.39,621.11 317.01,667.44 " fill="none" id="MusicPlayer-to-PointCounter" style="stroke:#A80036;stroke-width:1.0;"/><polygon fill="#A80036" points="320.65,671.29,317.3763,662.0011,317.216,667.6557,311.5615,667.4955,320.65,671.29" style="stroke:#A80036;stroke-width:1.0;"/><text fill="#000000" font-family="sans-serif" font-size="13" lengthAdjust="spacing" textLength="48" x="194.33" y="474.4951">displays</text><!--MD5=[91209727db7fe31ff17065fd4241083b]
@startuml
'https://plantuml.com/class-diagram

Menu - -> Piece : manipulates
Menu - -> Grid : manipulates
Menu - -> PointCounter : manipulates
Painter - -> Piece: displays
Painter - -> Grid: displays
Painter - -> PointCounter: displays
Painter - -> Menu: actions
MusicPlayer - -> Menu: actions
MusicPlayer - -> Piece: displays
MusicPlayer - -> Grid: displays
MusicPlayer - -> PointCounter: displays
Menu - -> Painter: renders
Menu - -> MusicPlayer: renders

Abstract Piece {
    -  forms: List
    -  rotation: int
    -  x: int
    -  y: int
    -  color: String
    -  height: int
    + getX()
    + getY()
    + getColor()
    + getHeight()
    + getRotation()
    + getForm()
    + setRotation()
    + setForms()
    + setColor()
    + setHeight()
    + setX()
    + setY()
    + rotate()
    + checkIfFits()
    + deRotate()
    + checkRight()
    + checkLeft()
    + checkUnder()
    + moveDown()
    + moveUp()
    + moveRight()
    + moveLeft()
}

class Grid {
    - matrix: List
    - width: int
    - height: int
    - x: int
    - y: int
    - blockSize: int
    - blankLine: List
    - defaultGridColor: String
    + Grid()
    + creatMatrix()
    + creatMatrixPiece()
    + getHeight()
    + getWidth()
    + getX()
    + getY()
    + getBlockSize()
    + getMatrix()
    + setMatrix()
    + isValid()
    + addPiece()
    + removeLines()
    + verifyLine()
    + removeLine()
}

class Painter {
    - board: TextGraphics
    + paintGrid()
    + paintGridList()
    + paintPiece()
    + paintText()

}

class PointCounter {
    - points: int
    - level: int
    - clearedLines: int
    - inCombo: boolean
    + PointCounter()
    + getPoints()
    + getLevel()
    + setPoints()
    + processLines()
    + processLevel()
    + getLevelTimer()

}

class MusicPlayer {
    - backgroundMusic:Clip
    - dropPieceSound:Clip
    - in: AudioInputStream
    + MusicPlayer()
    + loadMusic()
    + loadDropSound()
    + pieceDropped()
    + startMusic()

}

class Menu {
- painter: Painter
- screen: Terminal screen
- inputOptions: String
+ Menu()
+ run()
+ printMenu()
+ getGraphicMatrix()
+ getMatrixFromColors()
+ checkForInput()
+ readInput()
}

@enduml

@startuml

Menu - -> Piece : manipulates
Menu - -> Grid : manipulates
Menu - -> PointCounter : manipulates
Painter - -> Piece: displays
Painter - -> Grid: displays
Painter - -> PointCounter: displays
Painter - -> Menu: actions
MusicPlayer - -> Menu: actions
MusicPlayer - -> Piece: displays
MusicPlayer - -> Grid: displays
MusicPlayer - -> PointCounter: displays
Menu - -> Painter: renders
Menu - -> MusicPlayer: renders

Abstract Piece {
    -  forms: List
    -  rotation: int
    -  x: int
    -  y: int
    -  color: String
    -  height: int
    + getX()
    + getY()
    + getColor()
    + getHeight()
    + getRotation()
    + getForm()
    + setRotation()
    + setForms()
    + setColor()
    + setHeight()
    + setX()
    + setY()
    + rotate()
    + checkIfFits()
    + deRotate()
    + checkRight()
    + checkLeft()
    + checkUnder()
    + moveDown()
    + moveUp()
    + moveRight()
    + moveLeft()
}

class Grid {
    - matrix: List
    - width: int
    - height: int
    - x: int
    - y: int
    - blockSize: int
    - blankLine: List
    - defaultGridColor: String
    + Grid()
    + creatMatrix()
    + creatMatrixPiece()
    + getHeight()
    + getWidth()
    + getX()
    + getY()
    + getBlockSize()
    + getMatrix()
    + setMatrix()
    + isValid()
    + addPiece()
    + removeLines()
    + verifyLine()
    + removeLine()
}

class Painter {
    - board: TextGraphics
    + paintGrid()
    + paintGridList()
    + paintPiece()
    + paintText()

}

class PointCounter {
    - points: int
    - level: int
    - clearedLines: int
    - inCombo: boolean
    + PointCounter()
    + getPoints()
    + getLevel()
    + setPoints()
    + processLines()
    + processLevel()
    + getLevelTimer()

}

class MusicPlayer {
    - backgroundMusic:Clip
    - dropPieceSound:Clip
    - in: AudioInputStream
    + MusicPlayer()
    + loadMusic()
    + loadDropSound()
    + pieceDropped()
    + startMusic()

}

class Menu {
- painter: Painter
- screen: Terminal screen
- inputOptions: String
+ Menu()
+ run()
+ printMenu()
+ getGraphicMatrix()
+ getMatrixFromColors()
+ checkForInput()
+ readInput()
}

@enduml

PlantUML version 1.2022.0(Tue Jan 11 16:16:42 GMT 2022)
(GPL source distribution)
Java Runtime: OpenJDK Runtime Environment
JVM: OpenJDK 64-Bit Server VM
Default Encoding: Cp1252
Language: pt
Country: PT
--></g></svg>